<svg id="Layer_1" data-name="Layer 1" xmlns="http://www.w3.org/2000/svg" viewBox="0 0 750.27 300.51"><defs><style>.cls-1{fill:#353949;}</style></defs><path class="cls-1" d="M374.33,468.37q-15.3,0-33.69-1.56a86.31,86.31,0,0,1-9.88-1.38c-9.5-1.86-27.93-5.84-44.69-11.59-18.84-6.45-40.37-16.23-39.48-34.79.95-19.93,26.38-28.48,45.42-33.17a306.42,306.42,0,0,1,36.22-6.41h.18c2.32-.22,31.9-3,66.84-5.71a631.61,631.61,0,0,0-49.41-45.26c-16.89-13.9-35.76-28.38-52.42-41.15-27.4-21-44.57-34.32-51.74-42.59-14-16.19-18.41-31.22-12.94-44.68,7.15-17.61,28.92-27.38,68.53-30.74,90.84-7.71,159.89,16,181.14,43.4l-21.58,16.73c-14-18-72-40.16-157.25-32.93-40.9,3.47-45.38,13.38-45.55,13.8-1,2.38,1.22,8.41,8.27,16.53,5.72,6.6,26.13,22.25,47.74,38.81,16.83,12.91,35.91,27.54,53.15,41.75,32.07,26.42,55.89,50.89,66.73,63.82,21.53-1.45,42.45-2.59,58.14-2.88l7-.14c-.41-1.7-.78-3.4-1.13-5.07-6.12-29.84,10-42.66,20.11-47.65,14.76-7.25,34-8.73,57.16-4.39,35.93,6.74,39.13,31.52,38.83,41.86-.64,22.25-28.11,30.69-42.87,35.23-5.83,1.79-12.94,3.58-27.12,5,1,.92,2,1.86,3.14,2.8,13.2,11.27,39,19.39,48.23,21.69,9.63,1.8,39,4.83,53.09-3.68l14.12,23.36c-25.83,15.61-68,8-72.73,7.06l-.61-.13c-1.57-.38-38.74-9.54-59.83-27.54a97.48,97.48,0,0,1-19.22-21.56c-5.37.17-11.23.32-17.66.45-11,.2-24.93.85-39.87,1.75,8.34,14.66,11,29.65-1.84,48.58C436.66,461,412.82,468.37,374.33,468.37ZM276.56,420c7.93,4.93,28.11,12.49,59.46,18.65a64.24,64.24,0,0,0,6.91,1c56.17,4.73,77.52-3.4,81.28-8.94,6.44-9.52,6.19-13.33-7-31.18-42.63,3.09-83.85,6.91-86.19,7.13C308.84,409,285.59,414.9,276.56,420Zm270.32-84c-10,0-16.68,2-20.86,4-3.47,1.71-8.21,4-5.41,17.65a92.87,92.87,0,0,0,2.35,9.47c20.87-1.25,29.91-3.12,36.11-5,17.8-5.47,22.42-9,23.62-10.58.06-4-.63-10.57-16.59-13.57a104.27,104.27,0,0,0-19.22-2Z" transform="translate(-226.46 -167.86)"/><path class="cls-1" d="M738.78,429.16l-31.37-9.26c-4.4-1.3-19.26-6.36-25.75-17.06-4.13-6.8-9.33-17.52-6.84-31.88.14-.8,1.13-6.83,1.13-6.83,3.18-16,12-30.45,59.38-55,56.08-29,131.38-24.24,134.56-24,2.54.16,64.5,4.18,106.84,20l-9.56,25.57c-38.57-14.43-98.46-18.3-99.06-18.34-.78,0-71-4.42-120.24,21-30.82,15.94-40.28,24.83-43.61,31.6Z" transform="translate(-226.46 -167.86)"/></svg>